<svg width="512" height="512" viewBox="0 0 512 512" xmlns="http://www.w3.org/2000/svg">
  <defs>
    <linearGradient id="bg" x1="0" y1="0" x2="1" y2="1">
      <stop offset="0%" stop-color="#6C5CE7"/>
      <stop offset="100%" stop-color="#4834D4"/>
    </linearGradient>
    <linearGradient id="pig" x1="0" y1="0" x2="0" y2="1">
      <stop offset="0%" stop-color="#FFFFFF"/>
      <stop offset="100%" stop-color="#EDEFFF"/>
    </linearGradient>
    <linearGradient id="arrow" x1="0" y1="0" x2="1" y2="0">
      <stop offset="0%" stop-color="#00B383"/>
      <stop offset="100%" stop-color="#00E0A4"/>
    </linearGradient>
  </defs>

  <rect width="512" height="512" rx="112" fill="url(#bg)"/>

  <g>
    <rect x="70" y="240" width="120" height="32" rx="16" fill="url(#arrow)"/>
    <path d="M150 194 L226 256 L150 318" fill="none" stroke="url(#arrow)" stroke-width="32" stroke-linecap="round" stroke-linejoin="round"/>
  </g>

  <g transform="translate(210,0)">
    <ellipse cx="150" cy="280" rx="118" ry="88" fill="url(#pig)" stroke="#3B2FB5" stroke-width="6"/>
    <path d="M96 208 q-8 -34 22 -40 q26 -4 24 22 q-2 20 -20 26 Z" fill="url(#pig)" stroke="#3B2FB5" stroke-width="6"/>
    <ellipse cx="256" cy="288" rx="30" ry="24" fill="#FFFFFF" stroke="#3B2FB5" stroke-width="6"/>
    <circle cx="248" cy="288" r="4.5" fill="#3B2FB5"/>
    <circle cx="266" cy="288" r="4.5" fill="#3B2FB5"/>
    <circle cx="150" cy="240" r="7" fill="#3B2FB5"/>
    <rect x="90" y="352" width="22" height="34" rx="8" fill="url(#pig)" stroke="#3B2FB5" stroke-width="6"/>
    <rect x="200" y="352" width="22" height="34" rx="8" fill="url(#pig)" stroke="#3B2FB5" stroke-width="6"/>
    <rect x="128" y="192" width="44" height="10" rx="5" fill="#4834D4"/>
    <path d="M32 260 q-18 -6 -14 -22 q4 -14 20 -8" fill="none" stroke="#3B2FB5" stroke-width="8" stroke-linecap="round"/>
  </g>
</svg>
